<svg id="Laag_1" data-name="Laag 1" xmlns="http://www.w3.org/2000/svg" viewBox="0 0 225.36 79.12"><defs><style>.cls-1{fill:#16f83f;}.cls-2{font-size:16px;font-family:VAGRounded-Black, VAG Rounded;font-weight:800;letter-spacing:0.1em;}</style></defs><path class="cls-1" d="M374.89,196.14a2.37,2.37,0,0,1,.73,1.73,2.25,2.25,0,0,1-.73,1.69,2.38,2.38,0,0,1-1.72.68H348.26a2.46,2.46,0,0,1-2.38-2.37V149.7a2.25,2.25,0,0,1,.72-1.69,2.32,2.32,0,0,1,1.66-.69h24.91a2.39,2.39,0,0,1,1.72.69,2.25,2.25,0,0,1,.73,1.69,2.37,2.37,0,0,1-.73,1.73,2.34,2.34,0,0,1-1.72.72H350.7v43.27h22.47A2.34,2.34,0,0,1,374.89,196.14Zm0-38.48a2.32,2.32,0,0,1,0,3.38,2.38,2.38,0,0,1-1.72.68H360.28v4.83h8.42a2.46,2.46,0,0,1,2.45,2.45,2.25,2.25,0,0,1-.72,1.69,2.45,2.45,0,0,1-1.73.68H357.9a2.41,2.41,0,0,1-1.72-.68,2.22,2.22,0,0,1-.73-1.69v-9.65a2.2,2.2,0,0,1,.73-1.69,2.38,2.38,0,0,1,1.72-.69h15.27A2.39,2.39,0,0,1,374.89,157.66Zm-4.46,19.22a2.25,2.25,0,0,1,.72,1.69A2.46,2.46,0,0,1,368.7,181h-8.42v4.75h12.89a2.34,2.34,0,0,1,1.72.72,2.37,2.37,0,0,1,.73,1.73,2.24,2.24,0,0,1-.73,1.69,2.39,2.39,0,0,1-1.72.69H357.9a2.38,2.38,0,0,1-1.72-.69,2.2,2.2,0,0,1-.73-1.69v-9.65a2.22,2.22,0,0,1,.73-1.69,2.37,2.37,0,0,1,1.72-.68h10.8A2.41,2.41,0,0,1,370.43,176.88Z" transform="translate(-345.88 -147.32)"/><path class="cls-1" d="M389.33,199.6a2.25,2.25,0,0,1-1.69.72,2.28,2.28,0,0,1-1.66-.72,2.36,2.36,0,0,1-.72-1.73V149.7a2.22,2.22,0,0,1,.69-1.62,2.27,2.27,0,0,1,1.69-.68,2.37,2.37,0,0,1,1.69.64,2.19,2.19,0,0,1,.68,1.66v48.17A2.41,2.41,0,0,1,389.33,199.6ZM394,149.7a2.09,2.09,0,0,1,1-1.87,2,2,0,0,1,1.37-.51,2.4,2.4,0,0,1,1.12.29,2,2,0,0,1,.82.79l16.56,23.69V149.7a2.17,2.17,0,0,1,.72-1.62,2.41,2.41,0,0,1,1.73-.68,2.27,2.27,0,0,1,1.69.68,2.22,2.22,0,0,1,.69,1.62v30a2.19,2.19,0,0,1-1.08,2,2.41,2.41,0,0,1-1.37.43,2.35,2.35,0,0,1-1.94-1l-20.88-30A2.52,2.52,0,0,1,394,149.7Zm26.64,48.1a2.5,2.5,0,0,1-1,2.08,2.45,2.45,0,0,1-1.37.44,2.54,2.54,0,0,1-2-1.08l-16.56-23.69v22.32a2.25,2.25,0,0,1-.72,1.69,2.39,2.39,0,0,1-1.73.68,2.21,2.21,0,0,1-1.62-.68,2.32,2.32,0,0,1-.68-1.69v-30a2.08,2.08,0,0,1,1-1.95,2,2,0,0,1,1.37-.5,2.12,2.12,0,0,1,1.94,1.08l20.95,29.95A2.29,2.29,0,0,1,420.61,197.8Zm8,1.8a2.36,2.36,0,0,1-1.73.72,2.28,2.28,0,0,1-1.66-.72,2.36,2.36,0,0,1-.72-1.73V149.7a2.22,2.22,0,0,1,.69-1.62,2.27,2.27,0,0,1,1.69-.68,2.41,2.41,0,0,1,1.73.68,2.17,2.17,0,0,1,.72,1.62v48.17A2.36,2.36,0,0,1,428.61,199.6Z" transform="translate(-345.88 -147.32)"/><path class="cls-1" d="M445,199.56a2.39,2.39,0,0,1-1.73.68,2.46,2.46,0,0,1-2.37-2.37V149.7a2.25,2.25,0,0,1,.72-1.69,2.32,2.32,0,0,1,1.65-.69h14.4a27.36,27.36,0,0,1,13.72,3.42,24.5,24.5,0,0,1,9.4,9.44,29,29,0,0,1,0,27.18,24.42,24.42,0,0,1-9.4,9.46,27.26,27.26,0,0,1-13.72,3.42h-4.82a2.46,2.46,0,0,1-2.38-2.37,2.42,2.42,0,0,1,.69-1.73,2.23,2.23,0,0,1,1.69-.72h4.82A22.57,22.57,0,0,0,469,192.65a19.54,19.54,0,0,0,7.67-7.71,24.1,24.1,0,0,0,0-22.32,19.58,19.58,0,0,0-7.67-7.7,22.57,22.57,0,0,0-11.27-2.77H445.74v45.72A2.25,2.25,0,0,1,445,199.56Zm6.23-9.61a2.41,2.41,0,0,1-.68-1.73,2.25,2.25,0,0,1,.72-1.69,2.32,2.32,0,0,1,1.65-.69h4.75a11,11,0,0,0,8.46-3.42,12.17,12.17,0,0,0,3.21-8.67,12.91,12.91,0,0,0-1.44-6.12,10.68,10.68,0,0,0-4.11-4.32,11.68,11.68,0,0,0-6.12-1.59h-2.37v16.85a2.4,2.4,0,0,1-.69,1.73,2.34,2.34,0,0,1-3.38,0,2.39,2.39,0,0,1-.68-1.73V159.35a2.41,2.41,0,0,1,.68-1.73,2.25,2.25,0,0,1,1.69-.72h4.75a16.37,16.37,0,0,1,8.57,2.23,15.38,15.38,0,0,1,5.8,6.09,18.92,18.92,0,0,1,0,17.13,15.38,15.38,0,0,1-5.8,6.09,16.46,16.46,0,0,1-8.57,2.23h-4.75A2.25,2.25,0,0,1,451.25,190Z" transform="translate(-345.88 -147.32)"/><path class="cls-1" d="M522.85,196.14a2.36,2.36,0,0,1,.72,1.73,2.25,2.25,0,0,1-.72,1.69,2.39,2.39,0,0,1-1.73.68H496.21a2.46,2.46,0,0,1-2.37-2.37V149.7a2.25,2.25,0,0,1,.72-1.69,2.32,2.32,0,0,1,1.65-.69h24.91a2.4,2.4,0,0,1,1.73.69,2.25,2.25,0,0,1,.72,1.69,2.46,2.46,0,0,1-2.45,2.45H498.66v43.27h22.46A2.35,2.35,0,0,1,522.85,196.14Zm0-38.48a2.34,2.34,0,0,1,0,3.38,2.39,2.39,0,0,1-1.73.68H508.24v4.83h8.42a2.46,2.46,0,0,1,2.45,2.45,2.25,2.25,0,0,1-.72,1.69,2.45,2.45,0,0,1-1.73.68h-10.8a2.45,2.45,0,0,1-1.73-.68,2.25,2.25,0,0,1-.72-1.69v-9.65a2.23,2.23,0,0,1,.72-1.69,2.42,2.42,0,0,1,1.73-.69h15.26A2.4,2.4,0,0,1,522.85,157.66Zm-4.46,19.22a2.25,2.25,0,0,1,.72,1.69,2.46,2.46,0,0,1-2.45,2.45h-8.42v4.75h12.88a2.46,2.46,0,0,1,2.45,2.45,2.23,2.23,0,0,1-.72,1.69,2.4,2.4,0,0,1-1.73.69H505.86a2.42,2.42,0,0,1-1.73-.69,2.23,2.23,0,0,1-.72-1.69v-9.65a2.25,2.25,0,0,1,.72-1.69,2.41,2.41,0,0,1,1.73-.68h10.8A2.41,2.41,0,0,1,518.39,176.88Z" transform="translate(-345.88 -147.32)"/><path class="cls-1" d="M537.33,199.63a2.49,2.49,0,0,1-1.66.61,2.58,2.58,0,0,1-1.73-.61,2.16,2.16,0,0,1-.72-1.76V149.7a2.29,2.29,0,0,1,.72-1.66,2.36,2.36,0,0,1,1.73-.72h18.94a16.07,16.07,0,0,1,8.64,2.38,16.31,16.31,0,0,1,5.9,6.3,17.5,17.5,0,0,1,2.09,8.32,16.63,16.63,0,0,1-4.83,11.73,16.17,16.17,0,0,1-7.56,4.39l11.16,16a2.53,2.53,0,0,1-2.08,3.89,2.22,2.22,0,0,1-1.8-1.08l-13.32-19.08a2.29,2.29,0,0,1-.58-1.59,2.25,2.25,0,0,1,.72-1.69,2.31,2.31,0,0,1,1.66-.68,11.18,11.18,0,0,0,6.15-1.73,11.92,11.92,0,0,0,4.18-4.54,12.55,12.55,0,0,0,1.47-5.9A11.65,11.65,0,0,0,563,155.6a11.85,11.85,0,0,0-3.82-2.55,11.66,11.66,0,0,0-4.53-.9H538.05v45.72A2.2,2.2,0,0,1,537.33,199.63Zm15.44-28.22a8,8,0,0,1-1.33,0,3.08,3.08,0,0,1-2.13-.83,2.33,2.33,0,0,1-.75-1.69,2,2,0,0,1,.75-1.58,3.21,3.21,0,0,1,2.13-.65l1.83,0a3.51,3.51,0,0,0,2.27-.58,2.25,2.25,0,0,0,.79-1.91,2.32,2.32,0,0,0-.72-1.76,2.5,2.5,0,0,0-1.8-.69h-8.56a2.2,2.2,0,0,1-1.77-.72,2.53,2.53,0,0,1-.61-1.72,2.47,2.47,0,0,1,.61-1.66,2.2,2.2,0,0,1,1.77-.72h8.56a6.75,6.75,0,0,1,5.22,2.23,7.35,7.35,0,0,1,2.06,5.11,6.77,6.77,0,0,1-2.13,5.08,7.12,7.12,0,0,1-5.15,2.05C553.62,171.37,553.27,171.38,552.77,171.41Zm5.94,26.39a2.39,2.39,0,0,1-.76,1.76,2.43,2.43,0,0,1-1.76.76,2.29,2.29,0,0,1-1.87-1.08l-6.63-9.58v8.21a2.16,2.16,0,0,1-.72,1.76,2.46,2.46,0,0,1-1.65.61,2.58,2.58,0,0,1-1.73-.61,2.16,2.16,0,0,1-.72-1.76v-15.7a2.4,2.4,0,0,1,.72-1.83,2.32,2.32,0,0,1,1.66-.69,2.46,2.46,0,0,1,2,1l11,15.77A2,2,0,0,1,558.71,197.8Z" transform="translate(-345.88 -147.32)"/><text class="cls-2" transform="translate(13.79 69.16)">&lt; Web Development /&gt; </text><text x="-345.88" y="-147.32"/></svg>